<svg width="60" height="60" viewBox="0 0 60 60" fill="none" xmlns="http://www.w3.org/2000/svg">
<rect width="60" height="60" rx="10" fill="#D0E8F4"/>
<path d="M11.25 18.5V43.5H32.75C32.3073 42.1555 32.0823 40.7489 32.0833 39.3333H19.5833C19.5833 38.2283 19.1443 37.1685 18.3629 36.3871C17.5815 35.6057 16.5217 35.1667 15.4167 35.1667V26.8333C17.7292 26.8333 19.5833 24.9792 19.5833 22.6667H40.4167C40.4167 23.7717 40.8557 24.8315 41.6371 25.6129C42.4185 26.3943 43.4783 26.8333 44.5833 26.8333V26.9583C45.9792 26.9583 47.375 27.2083 48.75 27.6667V18.5H11.25ZM30 24.75C26.4583 24.8125 23.75 27.4583 23.75 31C23.75 34.5417 26.4583 37.125 30 37.25C30.7917 37.25 31.6042 37.0833 32.375 36.7708C32.9375 34.4792 33.875 32.3125 36.1875 30.1875C35.9375 27.4167 33.3125 24.6875 30 24.75ZM50.0625 31.5625L42 39.6875L39.1875 36.8333L36.25 39.7917L41.9792 45.5833L52.9792 34.5L50.0625 31.5625Z" fill="#3142A3"/>
</svg>
