<svg width="60" height="60" viewBox="0 0 60 60" fill="none" xmlns="http://www.w3.org/2000/svg">
<rect width="60" height="60" rx="10" fill="#D0E8F4"/>
<path d="M40.4167 36C41.6667 36 42.7083 37.0417 42.7083 38.2917C42.7083 39.5417 41.6667 40.5833 40.4167 40.5833C39.1667 40.5833 38.125 39.5417 38.125 38.2917C38.125 37.0417 39.1667 36 40.4167 36ZM40.4167 42.4583C38.9583 42.4583 35.8333 43.2917 35.8333 44.75C36.875 46.2083 38.5417 47.25 40.4167 47.25C42.2917 47.25 43.9583 46.2083 45 44.75C45 43.2917 41.875 42.4583 40.4167 42.4583ZM42.5 29.125V19.125L26.875 12.25L11.25 19.125V29.3333C11.25 38.7083 17.9167 47.6667 26.875 49.75C28.125 49.5417 29.1667 49.125 30.2083 48.7083C32.5 51.8333 36.25 53.9167 40.4167 53.9167C47.2917 53.9167 52.9167 48.2917 52.9167 41.4167C52.9167 35.1667 48.3333 30.1667 42.5 29.125ZM27.9167 41.4167C27.9167 42.6667 28.125 43.7083 28.3333 44.75C27.9167 44.9583 27.2917 45.1667 26.875 45.375C20.2083 43.2917 15.4167 36.625 15.4167 29.3333V21.8333L26.875 16.8333L38.3333 21.8333V29.125C32.5 30.1667 27.9167 35.1667 27.9167 41.4167ZM40.4167 49.75C35.8333 49.75 32.0833 46 32.0833 41.4167C32.0833 36.8333 35.8333 33.0833 40.4167 33.0833C45 33.0833 48.75 36.8333 48.75 41.4167C48.75 46 45 49.75 40.4167 49.75Z" fill="#3142A3"/>
</svg>
