<svg width="195" height="195" viewBox="0 0 195 195" fill="none" xmlns="http://www.w3.org/2000/svg">
<path d="M97.5 0C123.359 0 148.158 10.2723 166.443 28.5571C184.728 46.8419 195 71.6414 195 97.5C195 123.359 184.728 148.158 166.443 166.443C148.158 184.728 123.359 195 97.5 195L97.5 97.5L97.5 0Z" fill="#F1C87A"/>
<mask id="mask0" mask-type="alpha" maskUnits="userSpaceOnUse" x="97" y="0" width="98" height="195">
<path d="M97.5 0C123.359 0 148.158 10.2723 166.443 28.5571C184.728 46.8419 195 71.6414 195 97.5C195 123.359 184.728 148.158 166.443 166.443C148.158 184.728 123.359 195 97.5 195L97.5 97.5L97.5 0Z" fill="#F1C87A"/>
</mask>
<g mask="url(#mask0)">
<path d="M95.5882 96.8627L164.412 166.961C215.392 166.961 229.412 58.6274 164.412 24.2156L95.5882 96.8627Z" fill="#1661AE"/>
</g>
<path d="M163.774 168.235C163.618 120.336 140.85 97.8095 96.8627 97.5001C97.6888 146.352 115.479 167.386 163.774 168.235Z" fill="#EFEED4"/>
<path d="M163.774 26.1274C163.618 74.0268 140.85 96.5533 96.8627 96.8627C97.6888 48.0105 115.479 26.9763 163.774 26.1274Z" fill="#B9B99E"/>
<circle r="7.96569" transform="matrix(0 -1 -1 0 168.554 97.1813)" fill="#EFEED4"/>
</svg>
