<svg width="195" height="195" viewBox="0 0 195 195" fill="none" xmlns="http://www.w3.org/2000/svg">
<path d="M97.5 0C71.6414 0 46.8419 10.2723 28.5571 28.5571C10.2723 46.8419 1.95227e-06 71.6414 0 97.5C-1.95227e-06 123.359 10.2723 148.158 28.5571 166.443C46.8419 184.728 71.6414 195 97.5 195L97.5 97.5L97.5 0Z" fill="#F1C87A"/>
<mask id="mask0" mask-type="alpha" maskUnits="userSpaceOnUse" x="0" y="0" width="98" height="195">
<path d="M97.5 0C71.6414 0 46.8419 10.2723 28.5571 28.5571C10.2723 46.8419 1.95227e-06 71.6414 0 97.5C-1.95227e-06 123.359 10.2723 148.158 28.5571 166.443C46.8419 184.728 71.6414 195 97.5 195L97.5 97.5L97.5 0Z" fill="#F1C87A"/>
</mask>
<g mask="url(#mask0)">
<path d="M99.4118 96.8628L30.5884 166.961C-20.3922 166.961 -34.4118 58.6275 30.5884 24.2157L99.4118 96.8628Z" fill="#1661AE"/>
</g>
<path d="M31.2255 168.235C31.3824 120.336 54.1502 97.8095 98.1373 97.5001C97.3112 146.352 79.5214 167.386 31.2255 168.235Z" fill="#EFEED4"/>
<path d="M31.2255 26.1274C31.3824 74.0268 54.1502 96.5533 98.1373 96.8627C97.3112 48.0105 79.5214 26.9763 31.2255 26.1274Z" fill="#B9B99E"/>
<circle cx="26.4461" cy="97.1814" r="7.96569" transform="rotate(-90 26.4461 97.1814)" fill="#EFEED4"/>
</svg>
