<svg width="116" height="42" viewBox="0 0 116 42" fill="none" xmlns="http://www.w3.org/2000/svg">
<path d="M25.9883 33.1651C35.1084 33.1651 42.5017 25.7408 42.5017 16.5825C42.5017 7.42425 35.1084 0 25.9883 0C16.8682 0 9.47491 7.42425 9.47491 16.5825C9.47491 25.7408 16.8682 33.1651 25.9883 33.1651Z" fill="#F1C87A"/>
<path d="M36.0436 18.6606C40.7741 9.79479 22.9331 0.349864 18.2665 9.09593L6.82391 30.5417L12.7894 33.7514L22.3337 16.2427C25.3951 18.115 25.8589 18.3714 28.0187 19.4369L21.1281 32.513C23.9469 33.2132 25.9883 33.301 28.4633 32.9399L36.0436 18.6606Z" fill="#3142A3"/>
<path d="M28.5194 11.8813L30.5095 21.2842L19.4872 15.066L28.5194 11.8813Z" fill="#F1C87A"/>
<path d="M6.45202 38.4405L15.4012 35.0277L4.22607 29.0911L6.45202 38.4405Z" fill="#3142A3"/>
<path d="M51.681 14.5893L51.8 16.2485C52.8222 14.9654 54.1925 14.3239 55.9109 14.3239C57.4266 14.3239 58.5547 14.7708 59.2948 15.6645C60.035 16.5583 60.414 17.8944 60.4316 19.6731V28.9514H56.6115V19.7661C56.6115 18.9519 56.4353 18.3635 56.0828 18.0007C55.7303 17.629 55.1442 17.4432 54.3248 17.4432C53.2497 17.4432 52.4433 17.9033 51.9058 18.8236V28.9514H48.0857V14.5893H51.681ZM67.9132 11.0585V14.5893H70.3586V17.4033H67.9132V24.5711C67.9132 25.1021 68.0145 25.4826 68.2172 25.7127C68.4199 25.9428 68.8076 26.0578 69.3804 26.0578C69.8034 26.0578 70.1779 26.0268 70.504 25.9648V28.8718C69.755 29.1019 68.9838 29.2169 68.1908 29.2169C65.5118 29.2169 64.1459 27.8586 64.0932 25.1419V17.4033H62.0046V14.5893H64.0932V11.0585H67.9132ZM81.0523 27.4914C80.1093 28.6417 78.8051 29.2169 77.1396 29.2169C75.6063 29.2169 74.4342 28.7745 73.6236 27.8896C72.8216 27.0046 72.4119 25.7082 72.3943 24.0003V14.5893H76.2143V23.8677C76.2143 25.3631 76.8928 26.1109 78.2499 26.1109C79.5454 26.1109 80.4353 25.6595 80.9201 24.757V14.5893H84.7533V28.9514H81.158L81.0523 27.4914ZM92.8298 23.1906L91.4551 24.5711V28.9514H87.6349V8.56308H91.4551V19.8589L92.1953 18.9032L95.8568 14.5893H100.444L95.2752 20.5758L100.893 28.9514H96.5045L92.8298 23.1906ZM101.501 21.6376C101.501 20.213 101.774 18.9431 102.321 17.8281C102.867 16.7131 103.651 15.8503 104.673 15.2397C105.705 14.6292 106.899 14.3239 108.256 14.3239C110.185 14.3239 111.758 14.9168 112.974 16.1026C114.199 17.2883 114.882 18.8989 115.023 20.9342L115.05 21.9164C115.05 24.1198 114.437 25.8896 113.212 27.2259C111.988 28.5532 110.344 29.2169 108.282 29.2169C106.22 29.2169 104.572 28.5532 103.338 27.2259C102.114 25.8985 101.501 24.0933 101.501 21.8102V21.6376ZM105.321 21.9164C105.321 23.2791 105.577 24.3234 106.088 25.049C106.599 25.7657 107.33 26.1241 108.282 26.1241C109.207 26.1241 109.93 25.7702 110.45 25.0623C110.97 24.3454 111.23 23.204 111.23 21.6376C111.23 20.3015 110.97 19.266 110.45 18.5316C109.93 17.7971 109.198 17.4298 108.256 17.4298C107.321 17.4298 106.599 17.7971 106.088 18.5316C105.577 19.2572 105.321 20.3855 105.321 21.9164Z" fill="#3142A3"/>
</svg>
