<svg width="60" height="60" viewBox="0 0 60 60" fill="none" xmlns="http://www.w3.org/2000/svg">
<rect width="60" height="60" rx="10" fill="#D0E8F4"/>
<path d="M48.75 28.9167C48.75 40.4792 40.75 51.2917 30 53.9167C19.25 51.2917 11.25 40.4792 11.25 28.9167V16.4167L30 8.08334L48.75 16.4167V28.9167ZM30 49.75C37.8125 47.6667 44.5833 38.375 44.5833 29.375V19.125L30 12.625L15.4167 19.125V29.375C15.4167 38.375 22.1875 47.6667 30 49.75ZM30 18.5C31.6576 18.5 33.2473 19.1585 34.4194 20.3306C35.5915 21.5027 36.25 23.0924 36.25 24.75C36.25 27.4792 34.5208 29.7917 32.0833 30.6458V35.1667H36.25V39.3333H32.0833V43.5H27.9167V30.6458C26.6959 30.2175 25.6388 29.4196 24.8921 28.3631C24.1454 27.3066 23.7463 26.0438 23.75 24.75C23.75 23.0924 24.4085 21.5027 25.5806 20.3306C26.7527 19.1585 28.3424 18.5 30 18.5ZM30 22.6667C29.4475 22.6667 28.9176 22.8862 28.5269 23.2769C28.1362 23.6676 27.9167 24.1975 27.9167 24.75C27.9167 25.3025 28.1362 25.8324 28.5269 26.2231C28.9176 26.6138 29.4475 26.8333 30 26.8333C30.5525 26.8333 31.0824 26.6138 31.4731 26.2231C31.8638 25.8324 32.0833 25.3025 32.0833 24.75C32.0833 24.1975 31.8638 23.6676 31.4731 23.2769C31.0824 22.8862 30.5525 22.6667 30 22.6667Z" fill="#3142A3"/>
</svg>
